<?xml version="1.0" encoding="utf-8"?><svg xml:space="preserve" viewBox="0 0 100 100" y="0" x="0" xmlns="http://www.w3.org/2000/svg" id="圖層_1" version="1.1" width="200px" height="200px" xmlns:xlink="http://www.w3.org/1999/xlink" style="width:100%;height:100%;background-color:rgb(241, 242, 243);animation-play-state:paused" ><g class="ldl-scale" style="transform-origin-z:0px;transform-origin-y:50%;transform-origin-x:50%;transform:rotate(0deg) scale(0.8, 0.8);animation-play-state:paused" ><g style="animation-play-state:paused" ><path d="M29.009 20.652l-15.482 8.186 15.482 8.186 15.482-8.186z" fill="#f8b26a" style="fill:rgb(21, 33, 43);animation-play-state:paused" ></path>
<path d="M29.009 38.427l-15.482 8.186 15.482 8.186 15.482-8.186z" fill="#f8b26a" style="fill:rgb(21, 33, 43);animation-play-state:paused" ></path>
<path d="M13.527 28.838v17.637l15.482 8.186V37.024z" fill="#e15b64" style="fill:rgb(36, 112, 116);animation-play-state:paused" ></path>
<path d="M44.491 28.838v17.637l-15.482 8.186V37.024z" fill="#f47e60" style="fill:rgb(32, 70, 81);animation-play-state:paused" ></path></g>
<path fill="#333" d="M66.243 60.32c3.669-2.625 3.686-6.46.036-8.549l-6.27-3.588a9.443 9.443 0 0 0-2.214-.895c.114.269.198.544.255.822.113.546.121 1.105.018 1.668l6.11 3.496c2.497 1.429 2.486 4.053-.025 5.849-2.511 1.796-6.585 2.096-9.082.667l-6.11-3.496-.16-.092a4.807 4.807 0 0 1-.644-.447 3.801 3.801 0 0 1-.584-.586 2.875 2.875 0 0 1-.587-1.257c-.039-.212-.052-.426-.039-.643.012-.213.044-.426.106-.64.235-.804.826-1.599 1.773-2.277.947-.677 2.116-1.141 3.339-1.38.325-.063.653-.107.982-.139a2.546 2.546 0 0 0-.68-1.194 3.623 3.623 0 0 0-.662-.531c-.379.069-.755.148-1.125.247-1.443.383-2.804.987-3.944 1.802-1.14.816-1.926 1.748-2.361 2.708a4.648 4.648 0 0 0-.258.743c-.067.255-.106.51-.124.764a3.896 3.896 0 0 0 .546 2.29 4.7 4.7 0 0 0 .524.735c.423.482.966.925 1.636 1.308l6.27 3.588c3.65 2.089 9.604 1.652 13.274-.973z" style="fill:rgb(48, 157, 142);animation-play-state:paused" ></path>
<path fill="#333" d="M43.34 55.412a4.334 4.334 0 0 1-.255-.822 4.331 4.331 0 0 1-.018-1.668l-6.11-3.496c-2.497-1.429-2.486-4.053.025-5.849s6.585-2.096 9.082-.667l6.11 3.496.16.092c.24.138.45.289.644.447.226.184.421.38.584.586.308.391.505.815.587 1.257.039.212.052.426.039.643a2.862 2.862 0 0 1-.106.64c-.235.804-.826 1.599-1.773 2.277-.947.677-2.116 1.141-3.339 1.38-.325.063-.653.107-.982.139.1.426.327.832.68 1.194.186.191.406.369.662.531.379-.069.755-.148 1.125-.247 1.443-.383 2.804-.987 3.944-1.802s1.926-1.748 2.361-2.708c.111-.246.193-.494.258-.743.067-.255.106-.51.124-.764a3.896 3.896 0 0 0-.546-2.29 4.7 4.7 0 0 0-.524-.735 6.345 6.345 0 0 0-1.636-1.308l-6.27-3.588c-3.649-2.088-9.604-1.651-13.273.974s-3.686 6.46-.036 8.549l6.27 3.588a9.416 9.416 0 0 0 2.213.894z" style="fill:rgb(48, 157, 142);animation-play-state:paused" ></path>
<g style="animation-play-state:paused" ><path d="M71.991 45.339l-15.482 8.186 15.482 8.187 15.482-8.187z" fill="#f8b26a" style="fill:rgb(21, 33, 43);animation-play-state:paused" ></path>
<path d="M71.991 62.975l-15.482 8.187 15.482 8.186 15.482-8.186z" fill="#f8b26a" style="fill:rgb(21, 33, 43);animation-play-state:paused" ></path>
<path d="M56.509 53.525v17.637l15.482 8.186V61.712z" fill="#e15b64" style="fill:rgb(36, 112, 116);animation-play-state:paused" ></path>
<path d="M87.473 53.525v17.637l-15.482 8.186V61.712z" fill="#f47e60" style="fill:rgb(32, 70, 81);animation-play-state:paused" ></path></g>
<metadata xmlns:d="https://loading.io/stock/" style="animation-play-state:paused" ><d:name style="animation-play-state:paused" >blockchain</d:name>
<d:tags style="animation-play-state:paused" >blockchain,digital currency</d:tags>
<d:license style="animation-play-state:paused" >by</d:license>
<d:slug style="animation-play-state:paused" >5e77yv</d:slug></metadata></g><!-- generated by https://loading.io/ --></svg>